<?xml version="1.0" encoding="utf-8"?>
<!DOCTYPE svg PUBLIC "-//W3C//DTD SVG 1.0//EN" "http://www.w3.org/TR/2001/REC-SVG-20010904/DTD/svg10.dtd">
<svg version="1.0" xmlns="http://www.w3.org/2000/svg" width="344px" height="328px" viewBox="0 0 344 328" preserveAspectRatio="xMidYMid meet">
 <g fill="#000000">
  <path d="M157.1 314 c-42.7 -3.5 -81.8 -25.6 -108.1 -61 -30.4 -41.1 -37.5 -99.5 -18 -149.3 18.3 -46.7 61.3 -82.2 111 -91.7 18.5 -3.6 47.4 -3.1 66.6 1.1 42.6 9.2 80.6 38.7 100.8 78.2 6 11.8 10.6 24.9 10.6 30.2 l0 4.4 -85.2 0.3 c-95.2 0.4 -89 -0.1 -102.8 7.6 -17 9.3 -29.4 31.3 -27.5 48.6 2.4 22.1 19.2 41 41.3 46.7 7.1 1.8 11.7 1.9 83.9 1.9 l76.3 0 0 4.3 c0 4.9 -2.5 9.5 -12.5 22.2 -18.2 23.4 -46.9 42.8 -75.3 51.1 -17.3 5 -40.7 7 -61.1 5.4z"/>
  <path d="M139.8 224.1 c-14.2 -4.6 -25 -15.7 -29.2 -30 -2.4 -8 -2.1 -24.2 0.4 -32.4 3.8 -12.3 13.7 -22.5 27.1 -28 l5.4 -2.2 89.6 -0.3 89.7 -0.3 0.6 2.3 c0.3 1.3 1.2 8.5 1.8 16 1.3 15 0.2 32.6 -2.8 46.7 -1.9 8.9 -7 24.7 -9 27.9 l-1.4 2.2 -83.3 -0.1 c-77.9 0 -83.6 -0.1 -88.9 -1.8z"/>
 </g>
 <g fill="#ffffff">
  <path d="M0 164 l0 -164 172 0 172 0 0 164 0 164 -172 0 -172 0 0 -164z m195 145.9 c35.8 -4.8 72.8 -26.2 95.5 -55.4 7.3 -9.3 12.5 -17.3 12.5 -19.2 0 -1.1 -14.2 -1.3 -76.3 -1.3 -72.2 0 -76.8 -0.1 -83.9 -1.9 -23.5 -6 -40 -25.9 -41.5 -50.1 -1.6 -25.5 14.4 -48.3 39.7 -56.6 5.1 -1.7 11.7 -1.9 90.9 -2.2 l85.3 -0.3 -0.6 -3.1 c-1.1 -5.4 -8.6 -23 -13.3 -31.3 -7.7 -13.4 -13.2 -20.5 -24.8 -32.1 -31.7 -31.4 -72 -46.4 -116.5 -43.3 -13.3 0.9 -19.1 2 -31.2 5.4 -43.2 12.4 -80.4 46.2 -96.8 88.2 -11.5 29.3 -13.7 60.3 -6.5 90.2 13.6 56.1 57.6 99 114.6 111.5 14.9 3.3 34.8 3.9 52.9 1.5z m115.4 -89.1 c2.1 -3.3 7.2 -19.2 9.1 -28.3 2.9 -14.3 3.8 -28.5 2.6 -41.8 -0.6 -6.7 -1.4 -13.2 -1.7 -14.5 l-0.6 -2.3 -86.7 0.3 -86.6 0.3 -5.4 2.2 c-18.4 7.5 -29.1 22.9 -29.1 41.7 0 20 12.1 36.7 30.8 42.7 5.3 1.7 11 1.8 85.9 1.8 l80.3 0.1 1.4 -2.2z"/>
 </g>
</svg>